<?xml version="1.0" encoding="UTF-8" standalone="no"?>
<!-- Generator: Adobe Illustrator 14.0.0, SVG Export Plug-In . SVG Version: 6.00 Build 43363)  -->

<svg
   xmlns:dc="http://purl.org/dc/elements/1.1/"
   xmlns:cc="http://creativecommons.org/ns#"
   xmlns:rdf="http://www.w3.org/1999/02/22-rdf-syntax-ns#"
   xmlns:svg="http://www.w3.org/2000/svg"
   xmlns="http://www.w3.org/2000/svg"
   xmlns:sodipodi="http://sodipodi.sourceforge.net/DTD/sodipodi-0.dtd"
   xmlns:inkscape="http://www.inkscape.org/namespaces/inkscape"
   version="1.1"
   id="Layer_1"
   x="0px"
   y="0px"
   width="330.5px"
   height="284.5px"
   viewBox="0 0 330.5 284.5"
   enable-background="new 0 0 330.5 284.5"
   xml:space="preserve"
   sodipodi:docname="GP2.svg"
   inkscape:version="0.92.2 (5c3e80d, 2017-08-06)"><metadata
     id="metadata3725"><rdf:RDF><cc:Work
         rdf:about=""><dc:format>image/svg+xml</dc:format><dc:type
           rdf:resource="http://purl.org/dc/dcmitype/StillImage" /></cc:Work></rdf:RDF></metadata><defs
     id="defs3723" /><sodipodi:namedview
     pagecolor="#ffffff"
     bordercolor="#666666"
     borderopacity="1"
     objecttolerance="10"
     gridtolerance="10"
     guidetolerance="10"
     inkscape:pageopacity="0"
     inkscape:pageshadow="2"
     inkscape:window-width="1920"
     inkscape:window-height="1057"
     id="namedview3721"
     showgrid="false"
     inkscape:zoom="2.3462524"
     inkscape:cx="97.416455"
     inkscape:cy="194.3224"
     inkscape:window-x="-8"
     inkscape:window-y="-8"
     inkscape:window-maximized="1"
     inkscape:current-layer="Layer_1" /><path
     d="m 326.079,48.328 c 0,3.578 -0.451,6.938 -1.337,10.111 -0.887,3.204 -1.977,6.564 -3.252,10.144 l -50.467,118.515 c -4.59,13.533 -11.154,25.887 -19.68,37.087 -8.541,11.231 -18.42,20.909 -29.637,29.062 -11.218,8.153 -23.586,14.531 -37.088,19.135 -13.505,4.575 -27.521,6.876 -42.053,6.876 -18.87,0 -36.652,-3.576 -53.345,-10.703 C 72.529,261.4 58,251.598 45.646,239.09 33.279,226.612 23.462,212.082 16.196,195.528 8.931,178.945 5.307,161.241 5.307,142.385 5.307,123.498 8.931,105.793 16.196,89.241 23.462,72.657 33.279,58.126 45.646,45.649 58,33.142 72.531,23.341 89.223,16.216 105.916,9.06 123.699,5.514 142.568,5.514 h 140.698 c 5.852,0 11.404,1.06 16.632,3.234 5.212,2.179 9.738,5.167 13.565,8.992 3.825,3.829 6.893,8.339 9.18,13.565 2.3,5.23 3.436,10.891 3.436,17.023 z m -72.636,94.057 c 0,-15.308 -2.863,-29.776 -8.604,-43.404 C 239.099,85.355 231.195,73.437 221.13,63.231 211.066,53.026 199.273,44.999 185.769,39.148 172.251,33.297 157.86,30.342 142.567,30.342 c -15.292,0 -29.76,2.955 -43.404,8.806 C 85.536,44.998 73.619,53.025 63.429,63.23 53.225,73.437 45.196,85.354 39.332,98.98 c -5.865,13.628 -8.79,28.098 -8.79,43.404 0,15.276 2.925,29.684 8.79,43.188 5.864,13.503 13.893,25.296 24.097,35.376 10.19,10.083 22.107,17.952 35.735,23.71 13.644,5.724 28.112,8.587 43.404,8.587 15.293,0 29.685,-2.863 43.202,-8.587 13.504,-5.758 25.297,-13.627 35.361,-23.71 10.065,-10.08 17.969,-21.873 23.709,-35.376 5.74,-13.504 8.603,-27.91 8.603,-43.187 z m 39.764,-68.453 h -24.098 c 1.789,-2.021 4.014,-4.51 6.705,-7.465 2.676,-2.928 5.273,-6.037 7.824,-9.366 2.551,-3.299 4.652,-6.753 6.318,-10.299 1.646,-3.578 2.487,-7.156 2.487,-10.703 0,-5.881 -1.663,-9.957 -4.979,-12.26 -3.313,-2.27 -7.514,-3.424 -12.616,-3.424 -5.865,0 -10.455,1.464 -13.769,4.389 -3.313,2.925 -4.713,7.344 -4.199,13.191 h 13.38 c 0,-2.021 0.186,-3.95 0.573,-5.724 0.39,-1.806 1.978,-2.677 4.776,-2.677 1.54,0 2.675,0.561 3.438,1.711 0.777,1.15 1.15,2.489 1.15,4.015 0,1.773 -0.326,3.516 -0.949,5.164 -0.637,1.649 -1.851,3.765 -3.64,6.316 -1.79,2.553 -4.263,5.789 -7.452,9.739 -3.188,3.95 -7.203,9.24 -12.041,15.867 v 11.076 h 37.088 V 73.93 h 0.004 z"
     id="path3718"
     style="fill:#ffffff"
     inkscape:connector-curvature="0"
     sodipodi:nodetypes="sccccccscccscccsscccsscscscccscccscccscccccscsccccscsccccccccc" /><text
     xml:space="preserve"
     style="font-style:normal;font-weight:normal;font-size:150.94702148px;line-height:125%;font-family:sans-serif;letter-spacing:0px;word-spacing:0px;fill:#000000;fill-opacity:1;stroke:none;stroke-width:1.76891017px;stroke-linecap:butt;stroke-linejoin:miter;stroke-opacity:1"
     x="45.098236"
     y="174.48846"
     id="text3729"
     transform="scale(0.8981995,1.1133384)"><tspan
       sodipodi:role="line"
       id="tspan3727"
       x="45.098236"
       y="174.48846"
       style="font-style:normal;font-variant:normal;font-weight:normal;font-stretch:normal;font-family:MicroSquare;-inkscape-font-specification:MicroSquare;stroke-width:1.76891017px">G P</tspan></text>
<rect
     style="fill:#ffffff;stroke:#ffffff;opacity:1;stroke-width:1;stroke-miterlimit:4;stroke-dasharray:0, 11;stroke-dashoffset:0"
     id="rect3731"
     width="57.538567"
     height="69.04628"
     x="245.49789"
     y="17.691532" /><ellipse
     style="opacity:1;fill:#000000;stroke:#ffffff;stroke-width:1.09305167;stroke-miterlimit:4;stroke-dasharray:0, 12.02356945;stroke-dashoffset:0"
     id="path5018"
     cx="142.56776"
     cy="141.7191"
     rx="112.26023"
     ry="112.04711" /><text
     xml:space="preserve"
     style="font-style:normal;font-variant:normal;font-weight:normal;font-stretch:normal;font-size:152.23944092px;line-height:125%;font-family:'Myanmar Text';-inkscape-font-specification:'Myanmar Text';letter-spacing:0px;word-spacing:0px;fill:#ffffff;fill-opacity:1;stroke:none;stroke-width:1.58582747px;stroke-linecap:butt;stroke-linejoin:miter;stroke-opacity:1"
     x="42.15984"
     y="185.14211"
     id="text5022"
     transform="scale(0.95134245,1.0511462)"><tspan
       sodipodi:role="line"
       id="tspan5020"
       x="42.15984"
       y="185.14211"
       style="font-style:normal;font-variant:normal;font-weight:normal;font-stretch:normal;font-family:HL2EP2;-inkscape-font-specification:HL2EP2;stroke-width:1.58582747px">GP</tspan></text>
</svg>