<?xml version="1.0" encoding="UTF-8" standalone="no"?>
<!-- Generator: Adobe Illustrator 14.0.0, SVG Export Plug-In . SVG Version: 6.00 Build 43363)  -->

<svg
   xmlns:dc="http://purl.org/dc/elements/1.1/"
   xmlns:cc="http://creativecommons.org/ns#"
   xmlns:rdf="http://www.w3.org/1999/02/22-rdf-syntax-ns#"
   xmlns:svg="http://www.w3.org/2000/svg"
   xmlns="http://www.w3.org/2000/svg"
   xmlns:sodipodi="http://sodipodi.sourceforge.net/DTD/sodipodi-0.dtd"
   xmlns:inkscape="http://www.inkscape.org/namespaces/inkscape"
   version="1.1"
   id="Layer_1"
   x="0px"
   y="0px"
   width="64"
   height="64"
   viewBox="0 0 64 64"
   enable-background="new 0 0 330.5 284.5"
   xml:space="preserve"
   sodipodi:docname="gp2small.svg"
   inkscape:version="0.92.2 (5c3e80d, 2017-08-06)"><metadata
     id="metadata3725"><rdf:RDF><cc:Work
         rdf:about=""><dc:format>image/svg+xml</dc:format><dc:type
           rdf:resource="http://purl.org/dc/dcmitype/StillImage" /><dc:title></dc:title></cc:Work></rdf:RDF></metadata><defs
     id="defs3723" /><sodipodi:namedview
     pagecolor="#ffffff"
     bordercolor="#666666"
     borderopacity="1"
     objecttolerance="10"
     gridtolerance="10"
     guidetolerance="10"
     inkscape:pageopacity="0"
     inkscape:pageshadow="2"
     inkscape:window-width="1920"
     inkscape:window-height="1057"
     id="namedview3721"
     showgrid="false"
     inkscape:zoom="13.272408"
     inkscape:cx="8.7908065"
     inkscape:cy="43.951981"
     inkscape:window-x="-8"
     inkscape:window-y="-8"
     inkscape:window-maximized="1"
     inkscape:current-layer="Layer_1" /><path
     d="m 61.248687,13.611339 c 0,0.639961 -0.08066,1.24093 -0.239135,1.808452 -0.158649,0.573067 -0.353606,1.174036 -0.581652,1.814354 l -9.02652,21.197574 c -0.820967,2.42051 -1.995003,4.630145 -3.519962,6.633375 -1.527641,2.008775 -3.294598,3.73978 -5.300869,5.198025 -2.006449,1.458244 -4.218588,2.599012 -6.633553,3.422483 -2.415502,0.818284 -4.922402,1.22984 -7.521593,1.22984 -3.375085,0 -6.555571,-0.639603 -9.541278,-1.914337 C 15.898775,51.721363 13.300121,49.968179 11.090486,47.731 8.8785257,45.499187 7.1226591,42.900353 5.8230635,39.939508 4.5236468,36.973475 3.8754587,33.80694 3.8754587,30.434359 c 0,-3.378126 0.6481881,-6.544839 1.9476048,-9.505327 1.2995956,-2.966212 3.0554622,-5.565224 5.2674225,-7.796858 2.209635,-2.237 4.808647,-3.9900062 7.794175,-5.2643822 2.985708,-1.279921 6.166372,-1.9141579 9.541278,-1.9141579 h 25.165222 c 1.046688,0 2.039718,0.1895914 2.974797,0.5784329 0.932217,0.389735 1.741737,0.924169 2.426234,1.608308 0.684139,0.684854 1.232881,1.491512 1.641933,2.4262332 0.411378,0.935437 0.614562,1.947963 0.614562,3.044731 z m -12.991663,16.82302 c 0,-2.737986 -0.512076,-5.32573 -1.53891,-7.763232 -1.026655,-2.437144 -2.440364,-4.568796 -4.240588,-6.39424 -1.800045,-1.825264 -3.909339,-3.260972 -6.324663,-4.307481 -2.417827,-1.046509 -4.991799,-1.57504 -7.727102,-1.57504 -2.735125,0 -5.322869,0.528531 -7.763233,1.57504 -2.437323,1.04633 -4.568796,2.482038 -6.391377,4.307303 -1.825086,1.825622 -3.261152,3.957095 -4.3099863,6.394239 -1.049013,2.437502 -1.572178,5.025604 -1.572178,7.763232 0,2.732263 0.523165,5.309276 1.572178,7.724599 1.0488343,2.415144 2.4849003,4.524439 4.3099863,6.327346 1.822581,1.803444 3.954054,3.210892 6.391556,4.240767 2.440364,1.023793 5.028108,1.535869 7.763232,1.535869 2.735304,0 5.309455,-0.512076 7.727103,-1.535869 2.415323,-1.029875 4.524618,-2.437323 6.324663,-4.240767 1.800224,-1.802907 3.213932,-3.912202 4.240588,-6.327346 1.026655,-2.415323 1.538731,-4.991978 1.538731,-7.72442 z m 7.112183,-12.243492 h -4.310165 c 0.319981,-0.361476 0.717944,-0.806658 1.199256,-1.335189 0.478629,-0.523702 0.943128,-1.079777 1.399399,-1.675201 0.456271,-0.590059 0.832056,-1.207841 1.130036,-1.842078 0.294404,-0.63996 0.444825,-1.279921 0.444825,-1.914337 0,-1.051874 -0.297444,-1.7809072 -0.890543,-2.1928212 -0.592563,-0.406012 -1.343953,-0.612416 -2.256496,-0.612416 -1.049013,0 -1.86998,0.26185 -2.462721,0.785015 -0.592563,0.523165 -0.842967,1.3135472 -0.751033,2.3593412 h 2.393145 c 0,-0.361476 0.03327,-0.706497 0.102487,-1.023794 0.06976,-0.323021 0.353784,-0.478808 0.854234,-0.478808 0.275444,0 0.47845,0.10034 0.61492,0.306029 0.138975,0.205689 0.205689,0.445182 0.205689,0.718122 0,0.317119 -0.05831,0.628872 -0.169738,0.923633 -0.113933,0.29494 -0.331069,0.673407 -0.65105,1.129678 -0.320159,0.45663 -0.762479,1.03542 -1.332863,1.741916 -0.570205,0.706497 -1.288327,1.652665 -2.153651,2.837969 v 1.981052 h 6.633553 v -1.708469 h 7.16e-4 z"
     id="path3718"
     style="fill:#ffffff;stroke-width:0.17885984"
     inkscape:connector-curvature="0"
     sodipodi:nodetypes="sccccccscccscccsscccsscscscccscccscccscccccscsccccscsccccccccc" /><text
     xml:space="preserve"
     style="font-style:normal;font-weight:normal;font-size:26.99835968px;line-height:125%;font-family:sans-serif;letter-spacing:0px;word-spacing:0px;fill:#000000;fill-opacity:1;stroke:none;stroke-width:0.316387px;stroke-linecap:butt;stroke-linejoin:miter;stroke-opacity:1"
     x="11.324169"
     y="35.670692"
     id="text3729"
     transform="scale(0.8981995,1.1133384)"><tspan
       sodipodi:role="line"
       id="tspan3727"
       x="11.324169"
       y="35.670692"
       style="font-style:normal;font-variant:normal;font-weight:normal;font-stretch:normal;font-family:MicroSquare;-inkscape-font-specification:MicroSquare;stroke-width:0.316387px">G P</tspan></text>
<rect
     style="opacity:1;fill:#ffffff;stroke:#ffffff;stroke-width:0.17885984;stroke-miterlimit:4;stroke-dasharray:0, 1.96745823;stroke-dashoffset:0"
     id="rect3731"
     width="10.291339"
     height="12.349607"
     x="46.835964"
     y="8.1317053" /><ellipse
     style="opacity:1;fill:#000000;stroke:#ffffff;stroke-width:0.19550304;stroke-miterlimit:4;stroke-dasharray:0, 2.1505337;stroke-dashoffset:0"
     id="path5018"
     cx="28.425898"
     cy="30.315256"
     rx="20.078846"
     ry="20.040728" /><text
     xml:space="preserve"
     style="font-style:normal;font-variant:normal;font-weight:normal;font-stretch:normal;font-size:27.22952271px;line-height:125%;font-family:'Myanmar Text';-inkscape-font-specification:'Myanmar Text';letter-spacing:0px;word-spacing:0px;fill:#ffffff;fill-opacity:1;stroke:none;stroke-width:0.28364086px;stroke-linecap:butt;stroke-linejoin:miter;stroke-opacity:1"
     x="10.616618"
     y="37.840187"
     id="text5022"
     transform="scale(0.95134245,1.0511462)"><tspan
       sodipodi:role="line"
       id="tspan5020"
       x="10.616618"
       y="37.840187"
       style="font-style:normal;font-variant:normal;font-weight:normal;font-stretch:normal;font-family:HL2EP2;-inkscape-font-specification:HL2EP2;stroke-width:0.28364086px">GP</tspan></text>
</svg>